# xmcd CD database file
#
# Track frame offsets:
#	150
#	19522
#	42162
#
# Disc length: 727 seconds
#
# Revision: 0
# Processed by: cddbd v1.5.1PL0 Copyright (c) Steve Scherf et al.
# Submitted via: CDex 1.51
#
DISCID=1702d503
DTITLE=INVOICE - OVERLAP〜流れる時の中で〜
DYEAR=1994
DGENRE=Japanese Pop
TTITLE0=OVERLAP〜流れる時の中で〜
TTITLE1=TODAY
TTITLE2=Milestone〜道標〜
EXTD=YEAR: 1994
EXTT0=
EXTT1=
EXTT2=
PLAYORDER=
